<svg width="75" height="97" viewBox="0 0 75 97" xmlns="http://www.w3.org/2000/svg">
<path d="M74.9484 51.0684C74.7323 48.7481 73.7252 46.8261 72.0308 45.5014C69.8221 43.7742 67.5961 43.0729 62.8934 43.7049C60.715 43.9993 58.61 43.5318 57.2398 42.3456C56.2111 41.4539 55.6708 40.2375 55.6838 38.8305C55.6967 37.363 56.2284 36.1726 57.2874 35.2289C58.3507 34.125 61.9036 33.2635 62.928 36.0687C63.7363 38.2938 61.7437 39.4885 61.7437 39.4885C61.7437 39.4885 63.1873 40.1033 64.5662 39.4669C66.079 38.7699 67.1769 36.3977 65.2577 34.2116C65.2577 34.2116 68.4303 36.0384 71.5294 34.6921C74.0839 33.5795 75.4368 29.8653 73.6301 26.3459C73.6301 26.3459 71.564 31.3155 66.0358 30.4844C66.0358 30.4844 72.9601 29.7874 72.8045 23.0343C72.8045 23.0343 72.8694 19.9564 69.7054 18.2205C66.3167 16.3634 66.8743 13.9175 68.6205 12.2682C68.1451 12.0647 62.2969 13.5799 61.6616 18.1339C61.2466 21.0906 62.3272 22.017 63.1441 24.2637C63.7449 25.913 63.6887 28.6316 59.0855 30.1207C54.7026 31.6272 52.2389 34.8479 52.2043 38.8002C52.1827 41.2288 53.1639 43.4235 54.9619 44.9863C57.1231 46.8607 60.0536 47.601 63.9697 47.0858C62.807 47.5404 61.9771 48.601 61.9339 49.9905C61.8431 52.9342 65.6856 53.9429 67.2763 51.5316C67.2763 51.5316 64.9379 51.6355 64.8644 49.51C64.8082 47.9343 66.602 47.0858 68.2445 47.523C70.4834 48.1767 71.2355 50.194 71.3609 51.5706C71.4992 53.0684 70.8595 56.9212 65.4739 57.1593C61.2553 57.3454 59.5566 54.3931 59.4399 54.2026C58.9169 52.1031 57.2787 50.207 53.3886 49.2373C48.7291 48.0772 46.9138 46.4841 46.1055 45.1681C48.5001 45.7828 50.6828 45.1898 50.6828 45.1898C49.5072 43.9214 48.3617 41.4366 48.4309 38.073C48.5173 33.9692 50.7866 31.3934 51.6726 28.506C56.3797 29.558 57.1188 26.4368 57.1188 26.4368C56.1765 26.7398 53.9376 25.8654 54.6334 23.0732C55.3812 20.0776 54.4389 17.1556 54.4389 17.1556C57.8752 18.385 58.0135 14.6145 58.0135 14.6145C56.3235 15.6664 54.9879 14.3677 54.2747 12.2033C53.3843 9.50634 51.154 8.01286 51.154 8.01286C52.9521 7.3765 53.0861 5.93497 52.8915 4.99126C50.8687 6.04319 49.2349 4.90901 47.4368 4.18608C45.6387 3.46315 44.0048 3.24237 42.6476 3.2164C44.2555 1.85711 44.0308 0.718603 43.698 0C41.8955 1.34197 41.1824 1.08656 36.1944 1.19046C30.1561 1.32033 31.3231 5.48909 31.3231 5.48909C25.2978 7.61027 26.5037 9.73578 26.7198 10.2423C25.6522 10.3981 23.5127 11.3591 22.7606 12.6621C22.471 13.1643 23.0415 14.0647 23.4349 14.3071C23.1021 15.3071 23.4089 16.7487 24.4593 17.4673C24.8742 17.7486 25.2027 17.727 25.4534 17.5971C25.6479 17.8915 26.0974 18.3547 26.9403 18.1859C26.655 17.6794 26.3611 16.9954 26.4605 16.2335C27.191 15.3894 28.3494 15.4153 29.1144 15.6404C30.3333 15.9997 31.388 18.411 30.2771 18.662C29.9227 18.7443 29.4645 18.8828 28.7946 19.1079C28.5223 18.8915 28.0252 18.2941 27.7702 18.03C27.5584 18.6101 27.5108 19.1988 27.5238 19.5754C26.4864 19.9737 24.7143 20.1815 23.7288 19.8785C20.4698 18.8828 20.755 15.6058 21.1916 13.424C22.8816 4.95663 15.4688 5.94796 15.2224 8.61891C16.2036 8.35052 18.9267 8.21199 18.3821 14.0517C18.0838 17.2638 18.8489 20.6057 22.8168 21.5494C24.3339 21.9087 25.7171 21.6966 26.7631 21.372C26.8452 21.7875 27.0224 22.1512 27.1175 22.333C27.5411 23.1425 28.639 24.0213 27.2299 24.7875C24.5933 25.913 21.9869 27.9173 20.6556 31.4584C20.5951 31.6229 20.5303 31.783 20.4611 31.9389C20.3142 28.8567 22.7952 25.9909 22.7952 25.9909C19.1687 23.4888 15.7757 18.4759 14.2413 16.0171C13.7399 15.2119 13.6059 14.2292 13.8868 13.3245C15.1101 9.3505 11.8424 8.45008 11.8424 8.45008C10.926 6.10813 8.7476 7.05184 8.7476 7.05184C10.1826 7.50637 9.65961 9.00851 9.65961 9.00851C8.1684 7.75745 6.6772 8.51069 6.32277 9.17301C4.7019 9.05613 3.85472 9.98685 3.83743 10.9912C5.03039 10.1643 5.94673 10.792 6.27522 11.3288C3.34036 12.1643 4.39933 14.4846 4.39933 14.4846C2.91245 16.4803 4.87047 17.6101 4.87047 17.6101C4.83157 16.5582 5.56636 15.463 6.50863 15.463C7.65405 15.463 8.22027 16.7746 8.22027 18.398C8.22027 20.0213 7.65405 21.333 6.50863 21.333C5.57501 21.333 4.83157 20.5365 4.88776 19.3547C4.88776 19.3547 2.92974 20.636 4.59384 22.4975C4.56358 23.1598 4.7019 25.5191 7.10943 25.6316C9.16254 25.7312 10.0227 23.7356 10.0227 23.7356C10.0227 23.7356 10.8093 24.5927 10.5111 26.0559C10.3296 26.939 10.1307 27.861 10.9995 28.8177C11.0903 28.1294 11.7992 26.9866 12.7674 26.5537C11.4707 29.2549 12.9705 29.8134 12.6593 31.3848C13.8307 30.9562 13.2731 29.493 14.7556 28.7788C13.6707 31.506 15.6287 31.9519 14.881 33.7787C14.881 33.7787 16.4457 33.4454 16.5191 31.4237C16.5278 31.454 16.5364 31.4887 16.5408 31.5146C16.7266 32.8913 17.7856 34.3198 18.3777 35.0254C16.2079 36.9821 13.8307 36.5146 13.8307 36.5146C14.3666 38.1596 15.8708 39.4409 17.9412 40.4323C16.6229 41.1292 12.9619 43.4236 12.0585 43.7785C8.67844 45.0988 8.82108 42.1292 8.05602 40.7656C6.47405 37.9345 3.80717 39.6054 3.80717 39.6054C1.68059 39.0903 0.803155 41.2288 0.803155 41.2288C2.69201 40.3543 3.87201 41.9344 3.87201 41.9344C0.820445 41.9344 1.00198 44.4452 1.00198 44.4452C-0.139113 45.1248 -0.234204 46.7568 0.357955 47.601C0.574072 46.4365 1.76703 45.6876 3.09831 46.1551C0.8118 47.8737 1.98315 49.7611 2.54073 50.1983C2.16037 51.8217 3.22366 52.7048 4.17889 52.9559C3.45274 50.8477 5.03472 50.0598 6.0764 49.8174C6.71178 50.9213 7.69727 51.6832 9.17983 51.8C10.2129 54.3974 7.40768 54.8649 7.40768 54.8649C9.02423 56.4147 10.6062 54.9515 10.6062 54.9515C13.7572 55.484 14.3234 52.4797 12.8019 51.1594C12.8019 51.1594 12.8019 51.1594 12.8063 51.1594C13.2688 51.1247 14.1981 51.1853 14.989 52.0728C15.9918 53.2026 16.8995 52.826 17.4614 52.8563C17.1502 52.3541 16.8649 51.1334 17.5565 49.7871C17.5565 49.7871 18.2654 51.6052 20.5216 51.7308C20.1845 50.4494 20.621 49.3282 20.9755 48.6919C21.2262 48.8996 21.5114 49.3109 21.827 50.0685C22.5488 52.0425 24.3253 54.8173 28.8118 55.8346C33.3287 56.8562 39.7733 56.2632 41.6621 56.787C34.3963 59.2458 30.5883 62.8691 29.659 64.1202C29.551 64.263 29.4559 64.4016 29.3694 64.5358C28.6476 65.5314 28.3277 66.5184 28.4661 67.553C28.6692 69.0638 26.4778 69.0205 26.2141 67.605C25.4318 68.4578 25.5701 70.3885 27.1132 71.0768C28.1981 71.5616 29.538 70.6699 29.3867 68.9729C30.0048 70.4881 31.1891 72.0898 32.2265 73.3711C32.7668 74.0378 33.3027 74.9642 32.7927 75.9555C32.2265 77.0594 30.8261 78.3321 30.1085 78.5832C28.4012 79.1762 27.848 78.6524 25.7949 78.5485C23.7418 78.4446 23.0891 79.5745 23.1237 80.5312C21.5071 81.1762 21.4034 82.5095 21.5806 83.2454C22.1036 82.3407 23.5386 82.3493 24.0919 82.3147C24.0919 82.4879 24.0097 82.9684 24.2302 83.6394C22.0733 85.1372 23.651 87.1848 23.651 87.1848C23.9276 84.9554 26.0412 85.1848 26.0412 85.1848C26.0412 85.1848 26.132 85.8385 26.6593 86.3926C26.3352 87.2583 26.1882 89.0332 28.3969 89.6739C27.8782 88.8124 27.9863 87.6826 28.4099 87.1285C29.8838 87.1761 30.6272 85.964 30.6272 85.964C30.96 86.4445 31.362 86.7432 31.7856 86.9034C31.7467 87.7432 31.9931 89.0895 33.9554 89.1588C33.4756 88.2453 33.3546 87.6436 33.6572 86.8384C34.2623 86.596 34.7637 86.1718 34.9712 85.7216C35.5633 84.4619 34.8588 83.7389 34.8026 83.0203C34.7767 82.687 34.6816 82.1718 35.1052 81.6567C35.4985 82.345 36.3802 83.3017 38.0357 82.6653C37.0372 82.1199 36.752 80.6004 37.1323 79.7217C37.1367 79.7173 37.141 79.713 37.1453 79.7087C37.4954 80.397 38.6408 81.2455 40.011 80.4922C39.0039 79.6221 38.7878 78.3018 39.1984 77.3148C39.3799 77.9814 40.7458 79.5269 42.3062 78.2195C40.7285 77.8516 42.0079 76.2499 40.6896 75.2888C41.7356 71.9079 38.2821 71.8993 37.4522 68.6742C41.6621 68.9599 45.0076 67.9903 46.836 67.2803C46.8446 67.3712 46.8532 67.4535 46.8619 67.5487C47.0996 70.3106 47.8474 72.172 49.1182 73.3928C48.258 73.856 48.0765 74.8646 48.3272 75.5356C48.7767 76.7434 50.3241 76.8862 49.5979 78.5658C49.5979 78.5658 52.991 77.4966 50.5186 74.3928C50.8125 74.5443 51.1194 74.6785 51.4479 74.791C54.9706 76.0334 55.5238 74.9598 57.283 77.0204C57.9616 77.8169 58.1345 79.5485 58.0438 81.3493C57.9444 83.3623 57.698 84.8601 56.626 85.5138C55.2256 86.3666 53.4707 83.8774 52.2259 86.8341C51.6294 86.8514 49.9135 87.3839 49.9567 89.2194C50.6872 88.6566 51.8066 88.6653 52.2086 88.7388C52.0487 89.0765 52.0357 89.4964 52.1265 89.9033C51.5689 90.0635 50.5099 91.5613 51.3658 93.0851C51.8412 91.57 53.3497 91.1544 53.9721 91.2063C53.8857 91.9076 54.1191 92.479 54.5167 92.886C54.2358 93.7431 54.1969 95.2452 55.7529 95.9162C55.7529 95.9162 55.3077 94.5483 56.2673 93.5829C56.9978 93.5699 57.7239 93.2323 58.1561 92.4964C58.3074 93.0158 58.6532 93.4184 59.0984 93.6868C58.9515 94.4877 59.0249 96.2322 61.1602 96.2712C60.5983 95.4617 60.6415 94.6089 60.9613 93.9898C61.1299 93.9552 61.2985 93.9033 61.4584 93.8297C62.8286 93.2323 63.0101 91.8037 62.6989 90.4921C64.0864 89.5916 64.6267 88.9596 64.9379 87.1804C65.3874 87.3579 67.2936 87.6826 68.6075 86.0203C67.9938 85.8861 65.6078 85.2108 65.4436 82.6956C65.4436 82.6956 67.8598 83.7606 69.1435 82.1719C65.8845 80.9208 65.9191 78.4057 65.9191 78.397C66.5458 78.9338 68.5946 79.8818 69.7573 78.6178C67.6307 78.4749 68.9533 76.107 66.4982 75.0637C66.2259 74.9469 65.7937 74.8473 65.7375 74.0724C65.7289 71.9729 65.5084 69.7305 62.5433 69.0941C62.0073 68.9773 60.8317 68.5747 60.0147 68.276C58.2123 67.618 57.0712 65.7998 58.1907 62.2371C58.4198 61.5098 58.7829 60.5402 59.0941 59.4493C60.0925 60.1073 62.0246 60.9514 65.4479 60.9601C68.3266 60.9081 70.933 59.8648 72.7267 57.8476C74.3951 55.9688 75.1904 53.5706 74.9614 51.0988L74.9484 51.0684ZM72.9212 29.5104C73.0293 30.4324 71.2571 35.4323 65.1756 31.9952C65.1756 31.9952 70.0987 33.2852 72.9212 29.5104ZM63.8876 21.8525C61.2898 17.1469 65.798 14.6794 65.798 14.6794C64.9811 15.8699 65.0978 18.4629 66.1438 20.2031C67.2676 22.0732 67.6264 24.1598 67.1509 26.0385C70.5223 23.1382 67.8209 18.9954 67.8209 18.9954C67.8209 18.9954 70.531 20.2767 70.5223 23.1382C70.5094 28.0472 63.3386 29.3935 63.3386 29.3935C63.3386 29.3935 66.7014 26.9476 63.8876 21.8525ZM26.1666 81.4706C26.0067 81.6437 25.8338 81.9554 25.6695 82.0117C25.3108 82.1372 25.0168 81.7779 25.2589 81.2714C25.877 79.9728 27.982 80.6004 27.8998 80.6178C26.7933 80.8732 26.4691 81.1372 26.1709 81.4706H26.1666ZM28.4315 84.2844C28.3234 85.0203 26.9835 84.9207 27.2601 83.622C27.5497 82.2757 29.0496 81.8861 29.7152 81.8299C29.7239 81.8299 28.6606 82.7303 28.4315 84.2844ZM32.1876 83.977C32.6414 85.3363 31.7467 85.3276 31.362 85.1025C31.0076 84.8947 30.3247 84.1415 30.9514 82.9034C31.4658 81.8861 32.568 81.5918 32.568 81.5918C32.568 81.5918 31.7337 82.6177 32.1876 83.977ZM35.7967 80.9078C35.1786 80.5615 34.8458 79.713 34.9841 79.0377C35.1008 78.4749 35.6109 78.0853 35.9783 78.0291C35.317 79.4446 35.7967 80.9121 35.7967 80.9121V80.9078ZM39.4966 73.9252C39.2373 75.5659 40.1623 76.6395 40.1623 76.6395C39.4534 76.4923 38.8569 75.7261 38.8137 75.0724C38.7705 74.501 39.1638 74.0984 39.4966 73.9252ZM37.8671 76.1719C37.3268 77.6395 37.8844 79.0161 37.8844 79.0161C37.2404 78.7347 36.9076 77.8386 36.9594 77.2628C37.0113 76.6914 37.5041 76.2629 37.8671 76.1763V76.1719ZM31.3231 68.592C27.6232 65.7002 33.9252 61.8172 36.6915 60.3194C38.7705 59.1939 40.7242 58.4493 40.7242 58.4493C32.8143 63.3063 30.9644 66.4708 31.3231 68.592ZM46.2135 42.3673C42.2586 40.0859 43.7628 34.9475 43.7628 34.9475C43.7628 34.9475 43.9097 35.8522 44.5106 36.7613C45.0163 34.6012 46.3864 32.6055 47.3935 31.7787C44.4414 37.6098 45.3145 40.1812 46.2135 42.3673ZM37.0156 18.5668C37.9752 18.9348 38.697 20.6014 38.2216 22.636C39.7473 21.1252 40.4303 17.0647 38.1999 16.1859C38.1999 16.1859 42.09 15.8742 40.3179 21.5018C42.4877 19.8222 43.2528 14.4543 39.3367 14.1513C40.6637 13.7227 42.3321 14.3851 42.9675 15.8742C43.7152 17.6188 44.1993 24.1901 34.1283 25.545C34.1283 25.545 38.7186 22.7962 37.02 18.5625L37.0156 18.5668ZM38.2388 40.2504C37.5386 36.7007 38.8569 33.9778 39.5831 33.2505C39.2287 34.7873 38.4766 38.8305 40.6334 41.5924C39.8122 38.2332 40.4649 34.7397 42.3969 32.4324C41.4158 34.8696 40.1191 40.3716 44.1561 45.4538C43.5553 45.627 39.8424 44.8824 37.8239 42.3586C35.6844 39.6834 36.0993 36.3934 37.0805 34.6791C37.0805 34.6791 36.3802 38.2288 38.2345 40.2548L38.2388 40.2504ZM49.1787 8.92194C51.7677 10.7964 52.1481 13.4154 52.0746 15.1729C51.3009 13.45 48.7032 10.4371 44.5711 9.83967C45.2799 9.69681 47.4541 9.69681 49.3818 10.7444C48.5779 9.14271 46.3475 7.57564 43.0582 7.59728C43.0582 7.59728 45.9888 6.61028 49.183 8.92194H49.1787ZM50.6223 20.7096C50.6094 23.2767 51.0848 24.8827 52.2432 25.8914C50.5748 25.8221 49.8486 23.9347 49.8054 23.2464C49.6109 26.8437 45.1373 29.3069 44.9298 31.7354C43.9573 30.2809 43.9832 27.7485 44.2426 27.0212C41.8048 29.4238 38.6019 29.1727 37.0848 32.5233C35.7622 27.5017 40.5599 25.2204 40.5599 25.2204C39.4491 26.5061 38.8483 27.5796 38.7532 28.6619C40.0888 26.9346 42.5266 26.9823 44.3636 24.3589C46.6933 21.03 45.7338 18.017 45.7338 18.017C46.434 18.9521 47.2639 21.4802 45.8591 24.6749C44.8304 27.0169 45.2583 28.2073 45.2583 28.2073C45.2583 28.2073 45.4788 27.5796 46.4686 26.4801C48.6341 24.0689 49.4639 20.9131 48.9496 18.3417C47.5146 11.1557 40.9922 11.3461 40.9922 11.3461C45.1503 10.3245 50.6483 14.0431 50.6223 20.7096ZM33.0693 3.63198C34.2623 1.81382 37.7245 2.99129 39.3713 2.38524C38.187 4.06487 36.605 3.84409 35.7233 4.8917C35.7233 4.8917 35.8529 3.94799 37.0848 3.34627C37.0848 3.34627 32.81 3.09952 33.6053 5.74017C33.0996 5.68389 32.3518 4.71854 33.0693 3.62765V3.63198ZM29.4948 20.2767C31.6041 19.7096 33.2379 19.5148 32.6587 16.9305C32.0406 14.1599 30.0307 10.6881 26.6334 12.2509C28.224 12.0518 29.4213 12.6621 30.1604 14.3201C28.9156 13.9175 27.1737 13.805 25.9289 15.5669C25.9289 15.5669 23.7807 15.0734 25.4145 12.8786C25.1681 12.8786 24.6062 13.2249 24.3339 13.4197C24.1697 13.5366 23.8239 13.2033 23.9449 13.0344C24.2345 12.6232 25.0557 11.4024 28.5914 10.8829C28.2283 10.5323 25.6782 8.39813 31.9585 6.45877C32.1919 6.66656 33.2466 7.78342 35.693 6.56699C37.0416 5.89601 38.7359 3.80513 41.8826 4.93931C41.8826 4.93931 41.7745 9.22496 37.7807 8.48038C37.7807 8.48038 39.5096 7.57131 39.3799 6.21635C38.1697 6.01289 37.0718 6.32457 36.0129 7.41979C36.8989 7.74014 37.4522 9.46738 34.9668 9.86564C32.8273 10.2033 32.3389 8.87432 32.3389 8.87432C32.3389 8.87432 31.1027 9.80504 30.048 9.40245C29.1922 9.07778 29.6331 8.37649 29.914 8.11242C28.7946 8.51069 28.2283 9.84833 29.4559 10.5583C30.6359 11.2379 31.8418 10.8137 31.8418 10.8137C31.8418 10.8137 31.3491 11.7401 31.9844 12.5885C32.3043 11.844 32.6198 10.9435 34.8545 10.805C36.5358 10.7011 37.6121 9.9046 37.7158 9.76175C37.5386 10.3981 36.8644 11.4933 35.5893 12.4846C36.6698 12.424 37.4652 11.844 38.0314 11.3461C37.9449 11.9262 37.3355 13.0864 36.0863 14.2898C37.0156 14.108 37.7072 13.7054 38.174 13.082C38.174 13.082 38.3426 14.5409 36.229 15.9521C34.4266 17.1556 34.4957 18.9651 34.4266 19.3547C34.3574 19.7443 34.5951 21.1728 32.7625 21.9044C31.5263 22.4022 31.8159 23.9347 31.8159 23.9347C31.8159 23.9347 30.8952 23.3503 30.6748 22.7615C30.6532 23.9823 29.6072 24.4715 29.1922 24.623C29.5337 24.0646 29.819 23.2594 29.002 22.0776C28.5741 21.4629 28.0468 20.662 29.4991 20.2724L29.4948 20.2767ZM9.94056 18.4456C9.94056 18.4456 9.86276 13.3115 6.45676 13.7703C5.92944 13.8742 5.70468 13.3245 6.06343 12.8093C6.74204 11.8353 10.6537 11.6362 9.94056 18.4413V18.4456ZM10.8266 14.108C10.7575 13.3288 10.1653 11.134 7.79669 11.0561C6.75933 11.0215 7.26504 9.51067 8.75192 9.95655C11.4145 10.7574 10.8266 14.1037 10.8266 14.1037V14.108ZM11.743 25.7398C11.9937 24.8178 12.0499 23.5581 11.0428 22.4109C12.6723 22.1858 13.0959 24.5104 11.743 25.7398ZM12.2271 12.7271C12.2271 12.7271 12.2271 10.8959 11.1119 10.0561C10.442 9.54963 11.3756 9.25093 12.0455 9.93058C12.5426 10.4327 12.9316 11.3245 12.2271 12.7271ZM14.2542 27.216C13.9646 27.4454 13.6923 27.8048 13.5108 28.0991C13.4071 27.0212 14.5006 26.1987 13.8739 24.7918C15.0582 24.9953 15.2181 26.4498 14.2542 27.216ZM16.7785 29.0731C16.5797 29.5233 16.1906 29.6445 15.7498 30.4238C15.6417 29.2939 16.4759 28.5753 16.0394 27.229C16.9082 27.5061 17.0897 28.3718 16.7828 29.0731H16.7785ZM13.1131 18.9088C12.2141 17.3114 12.8149 16.0517 12.8149 16.0517C12.8149 16.0517 12.923 16.5712 13.2731 17.1686C14.4833 19.2464 18.4901 24.4801 20.7334 25.9476C19.2033 26.571 14.3666 21.1295 13.1175 18.9088H13.1131ZM17.7726 37.441C20.4654 36.9431 21.6843 36.6617 23.2188 32.4237C24.805 28.0472 29.0842 26.5623 31.6992 26.1295C24.2475 28.8913 25.7344 33.6142 23.0372 36.3587C27.325 35.0254 26.7847 29.8826 32.957 27.9693C27.0008 31.7614 29.149 37.6141 29.94 38.5535C29.7973 32.7874 32.8835 30.6272 34.1067 30.2549C30.6315 33.5969 31.5263 38.7699 32.7236 40.6963C32.0622 36.5968 34.1154 33.3804 35.2046 32.8523C32.8619 37.5578 33.9684 42.6097 36.7476 45.0685C28.3148 42.969 27.459 38.337 27.3293 35.7657C22.7087 40.9561 17.7683 37.441 17.7683 37.441H17.7726ZM22.8514 48.5923C22.3716 47.917 21.157 46.588 19.2465 46.4625C19.8084 47.1118 19.7652 48.4321 19.3676 49.4278C18.8878 48.9473 18.2438 47.7482 16.2425 47.6183C16.2425 47.6183 16.4846 48.7568 15.7498 50.3022C15.7498 50.3022 14.6562 48.4321 12.2227 48.7438C12.2487 48.2157 13.6318 47.5923 15.0885 48.0815C14.3364 46.601 10.2518 46.8218 10.7013 49.3888C10.7013 49.3888 8.86862 49.9516 7.78372 48.3239C6.96247 47.0902 5.29406 47.5101 4.55062 48.0988C4.33882 48.2676 4.11406 48.5187 3.75963 48.536C3.53054 48.5447 3.37062 48.3499 3.33604 48.0728C3.23663 47.3369 4.20915 45.8824 6.53024 46.2157C6.232 45.653 5.36754 44.5967 3.56945 44.5491C2.50615 44.5231 2.48022 44.1205 2.50615 43.8738C2.5537 43.4625 3.48732 42.7699 4.84886 43.2504C5.98995 43.653 6.18878 44.246 6.88035 44.6876C6.05046 43.3629 6.30548 42.4798 4.79266 41.3976C4.40798 41.1249 4.34314 40.718 4.78402 40.5275C5.3416 40.2894 6.16716 40.2721 6.76365 41.2115C7.6843 42.6573 7.36445 43.9084 8.8254 44.9733C9.60774 45.5447 10.8439 45.7439 12.8365 44.7266C14.3709 43.943 15.257 43.3932 17.2626 42.2244C21.5936 39.705 24.0962 42.285 24.5025 42.5621C24.9088 42.8391 25.8511 44.2417 28.9631 43.5491C28.3277 44.3802 26.4562 44.8261 24.4333 44.2201C26.2357 45.1248 27.9517 45.5967 30.5451 44.8911C29.8146 45.6226 27.835 46.6962 24.9607 45.9343C26.6593 47.0425 29.7498 47.2114 32.2481 46.233C31.5047 47.4581 26.8322 49.7654 22.7303 46.1335C23.3052 47.2893 22.9162 48.3802 22.8384 48.5923H22.8514ZM41.6362 55.09C38.1481 55.0554 33.8517 55.2545 29.6936 54.4883C24.5457 53.5403 23.9147 50.4797 23.9017 50.3412C23.9708 50.523 25.3886 52.9212 30.1388 53.8043C32.7581 54.2892 36.3759 54.3152 41.325 54.3325C45.509 54.3498 45.9499 57.2848 45.9499 57.2848C44.9514 55.8346 43.6202 55.1117 41.6319 55.09H41.6362ZM45.2929 63.6786C43.8881 63.4102 43.3133 62.0466 43.7801 60.2328C44.4803 57.5099 42.3624 56.8259 42.3624 56.8259C42.3624 56.8259 44.9774 57.0684 44.6402 60.0077C44.463 61.5704 44.0826 63.3756 47.2941 63.4362C47.2941 63.4362 46.6198 63.934 45.2886 63.6786H45.2929ZM65.6295 85.7822C64.0734 85.7259 63.0404 83.9813 64.1944 82.726C64.1944 82.726 64.1037 84.609 65.6295 85.7822ZM64.4797 74.4577C64.4797 74.4577 64.5229 75.5875 65.6381 76.0074C66.3988 76.2932 66.5631 76.739 66.6409 76.9944C66.1914 76.8256 65.9061 76.7607 65.5214 76.7347C64.3544 76.6525 63.9956 75.3624 64.4797 74.4577ZM64.631 78.5702C64.631 78.5702 64.6137 80.3753 66.0055 81.4922C64.6569 81.319 63.4899 79.9641 64.631 78.5702ZM59.4226 69.869C62.647 70.9339 64.0864 70.5919 64.1253 73.211C64.1253 73.211 63.7319 71.8344 62.0851 71.882C62.8113 72.3755 63.3818 73.12 63.183 74.9858C62.9107 76.5053 63.8746 77.2542 63.8746 77.2542C63.8746 77.2542 62.029 78.7563 63.1225 81.2108C62.1327 82.2022 62.0895 84.0376 62.794 85.4532C62.673 86.241 62.5649 86.8081 61.7177 87.4402C61.2812 87.7648 61.1991 88.2886 61.2077 88.9942C61.2164 89.7518 61.5578 91.0548 60.3649 91.6392C59.5306 92.0461 58.3766 91.6176 58.4198 90.2843C58.4371 89.6609 58.8218 88.9423 59.3621 88.4705C58.7959 88.6133 57.9487 88.7994 57.6202 89.9293C57.2917 91.0592 56.9502 91.557 55.8783 91.3882C55.057 91.2626 54.2617 89.215 57.0237 88.1674C57.0237 88.1674 54.8755 87.7778 54.0845 89.7864C53.8036 89.4877 53.2373 88.2367 54.6983 87.3016C54.6983 87.3016 53.6609 87.1155 53.246 87.557C53.354 86.9077 53.8295 86.4142 54.56 86.5008C56.0296 86.6739 58.6705 87.6306 59.4831 83.2887C59.4831 83.2887 59.8591 83.5052 60.2265 84.2238C60.3303 83.6826 60.3994 81.9554 59.6517 79.8342C59.6517 79.8342 60.1055 80.0463 60.7366 80.9381C60.6069 79.9295 60.5853 77.7563 59.3059 75.9815C60.2438 76.2499 60.8792 77.3884 60.8792 77.3884C60.8792 77.3884 61.1645 73.4707 58.1907 72.6049C55.5152 71.8257 54.789 69.8993 54.5081 68.3452C54.0759 68.856 53.7992 70.4534 54.5989 71.6309C52.9045 71.4404 48.8588 71.2499 48.0808 66.7608C47.199 61.6657 52.6279 53.8823 46.7927 52.4191C47.7826 53.787 47.9684 55.0597 47.8733 55.9082C47.4973 55.3411 46.6242 52.3671 42.0598 52.5316C42.0598 52.5316 33.0521 53.2329 30.718 51.3195C32.9526 51.9948 39.8295 52.1983 43.0626 50.5187C41.3336 50.891 36.886 50.8477 35.2175 49.7351C40.4173 50.207 45.3966 47.7698 45.3966 47.7698C45.3966 47.7698 47.2336 49.0685 50.2117 50.0252C52.7014 50.826 56.2197 51.0771 57.028 53.4537C56.2889 52.8823 54.7112 52.6139 54.011 52.7914C55.8523 53.4364 56.9891 54.2329 57.2701 56.0164C56.7514 55.5965 55.7745 55.116 55.1392 55.116C56.7687 56.1939 57.041 57.8346 56.8638 58.9731C56.6001 58.3237 56.0641 57.9515 55.7097 57.9385C56.2889 59.1289 56.0469 60.5748 55.9777 61.0077C55.9474 61.2025 54.3309 68.1894 59.4312 69.8733L59.4226 69.869ZM72.8866 50.9905C72.1346 45.9213 67.7776 45.7915 67.7776 45.7915C70.1117 44.5231 73.6258 47.0685 72.8866 50.9905Z" />
<path d="M18.166 46.5318C17.5565 46.2677 16.9384 45.8002 14.8378 45.9473C15.3651 44.9474 16.8649 44.2288 18.6803 45.2201C17.6732 45.3413 17.2194 45.5015 17.2194 45.5015C17.2194 45.5015 17.911 45.917 18.166 46.5361V46.5318ZM20.8415 43.7223C20.8415 43.7223 21.4336 44.0989 21.6627 44.7785C21.2175 44.5448 20.0894 43.7829 18.4556 43.9474C18.8143 43.0599 21.0274 42.1465 22.3802 43.8998C21.8788 43.7439 21.4164 43.6097 20.8415 43.7223Z" />
<path d="M53.9808 62.2198C53.1984 64.0899 52.9391 65.4405 53.3843 67.2284C51.6554 65.6223 51.9623 63.7046 53.1855 61.8085C54.1537 60.3107 54.2012 59.1895 54.2012 59.1895C54.2012 59.1895 54.7761 60.315 53.9808 62.2198Z" />
<path d="M18.4599 43.9474C20.0937 43.7829 21.2175 44.5448 21.6671 44.7785C21.438 44.0989 20.8458 43.7223 20.8458 43.7223C21.4207 43.6054 21.8875 43.7439 22.3846 43.8998C21.0317 42.1465 18.823 43.0599 18.4599 43.9474Z" />
<path d="M14.8378 45.9473C16.9427 45.8002 17.5608 46.272 18.166 46.5318C17.911 45.917 17.2194 45.4971 17.2194 45.4971C17.2194 45.4971 17.6732 45.337 18.6803 45.2158C16.8649 44.2244 15.3651 44.943 14.8378 45.943V45.9473Z" />
</svg>
